<svg xmlns="http://www.w3.org/2000/svg" width="150" height="130" viewBox="0 0 150 130">
    <g fill="none" fill-rule="evenodd">
        <path fill="#3A225D" d="M35.797 105.204L76.831 129.397 76.831 70.275 33.489 47.196zM76.831 70.275L76.831 129.397 117.67 105.319 119.963 47.448z" transform="translate(2)"/>
        <path fill="#291547" d="M119.963 47.448L77.146 26 33.489 47.196 76.831 70.275z" transform="translate(2)"/>
        <path fill="#63458F" d="M56.809.168L13.152 19.525 33.489 47.196 77.146 26zM137.431 74.267L119.963 47.448 76.832 70.275 93.749 97.437zM77.146 26L119.963 47.448 146.014 21.618 103.197 2.009zM.789 50.179L44.131 75.096 76.831 70.274 33.489 47.196z" transform="translate(2)"/>
    </g>
</svg>
