<svg xmlns="http://www.w3.org/2000/svg" width="150" height="130" viewBox="0 0 150 130">
    <g fill="none" fill-rule="evenodd">
        <path fill="#3A225D" d="M110.302.035L31.604 1.492c-1.208.022-2.341.59-3.083 1.543l-8.63 11.097c-.576.74-.873 1.658-.841 2.594l2.97 86.14c.023.666.212 1.316.55 1.89l13.443 22.852c.802 1.364 2.332 2.127 3.904 1.946l87.058-9.99c2.02-.232 3.544-1.941 3.544-3.974V22.867c0-.955-.342-1.879-.963-2.604L113.413 1.431c-.777-.906-1.918-1.418-3.11-1.396z"/>
        <path fill="#63458F" d="M41.915 10.694L46.498 22.915 48.026 70.272 115.243 65.689 115.243 21.387 106.076 9.166z"/>
    </g>
</svg>
