<svg xmlns="http://www.w3.org/2000/svg" width="150" height="130" viewBox="0 0 150 130">
    <g fill="none" fill-rule="evenodd">
        <path fill="#3A225D" d="M92.512 3.865l-3.638 26.39h38.482l-3.637-26.39c-.273-1.979-1.965-3.453-3.963-3.453H96.474c-1.998 0-3.69 1.474-3.962 3.453z" transform="translate(5)"/>
        <path fill="#291547" d="M106.551 124.454L109.679 124.454 109.679 30.255 106.551 30.255z" transform="translate(5)"/>
        <path fill="#3A225D" d="M129.994 77.769v32.376c0 2.209-1.791 4-4 4H13.944c-2.208 0-4-1.791-4-4V77.769H4c-2.21 0-4 1.79-4 4v38.646c0 2.21 1.79 4 4 4h131.938c2.21 0 4-1.79 4-4V81.769c0-2.21-1.79-4-4-4h-5.944z" transform="translate(5)"/>
        <path fill="#63458F" d="M9.944 114.931L129.993 114.931 129.993 101.092 9.944 101.092z" transform="translate(5)"/>
        <g>
            <path fill="#4A2E73" d="M120.994 42.894H.944V10.256c0-5.185 4.204-9.389 9.39-9.389h101.27c5.186 0 9.39 4.204 9.39 9.389v32.638z" transform="translate(5) translate(9 58.198)"/>
            <path fill="#291547" d="M.945 71.589L11.083 71.589 11.083 66.217.945 66.217zM110.855 71.589L120.993 71.589 120.993 66.217 110.855 66.217z" transform="translate(5) translate(9 58.198)"/>
        </g>
    </g>
</svg>
