<svg xmlns="http://www.w3.org/2000/svg" width="150" height="130" viewBox="0 0 150 130">
    <g fill="#63458F" fill-rule="evenodd">
        <path d="M80.914 73.412v38.654c0 9.494-7.767 17.261-17.26 17.261H18.218c-9.493 0-17.261-7.767-17.261-17.26V73.411c0-1.77.446-7.981.446-9.454 0-27.142 27.224-47.947 55.846-36.586 13.103 5.201 23.665 21.385 23.665 35.484v10.556z" transform="translate(32)"/>
        <path d="M38.655 41.17l-8.3-33.201c-.539-2.153 1.422-4.053 3.576-3.516 2.873.716 6.397.76 8.853-2.02 3.25-3.677 8.286-2.414 11.24-1.188 1.39.576 2.1 2.12 1.651 3.556L44.26 41.333c-.878 2.807-4.89 2.692-5.604-.162" transform="translate(32)"/>
    </g>
</svg>
