<svg xmlns="http://www.w3.org/2000/svg" width="150" height="130" viewBox="0 0 150 130">
    <g fill="none" fill-rule="evenodd">
        <g fill="#291547">
            <path d="M35.621 106.4c1.773 0 3.31-1.227 3.704-2.956L43.2 86.4H28.8l3.225 17.021c.327 1.728 1.837 2.979 3.596 2.979z" transform="translate(22 10)"/>
            <path d="M41.357 42.074l27.519 35.313c1.793 2.301 1.381 5.62-.92 7.413-.051.04-.103.08-.156.118C59.777 90.706 49.177 93.6 36 93.6s-23.777-2.894-31.8-8.682c-2.366-1.707-2.9-5.009-1.193-7.375.038-.053.077-.105.117-.156l27.519-35.313c2.306-2.958 6.573-3.488 9.532-1.182.44.344.838.74 1.182 1.182z" transform="translate(22 10)"/>
            <path d="M40.408 24.525L65.241 56.16c1.62 2.065 1.26 5.054-.804 6.675l-.042.032C57.154 68.422 47.555 71.2 35.6 71.2c-11.955 0-21.554-2.778-28.795-8.333-2.083-1.598-2.476-4.582-.878-6.665l.032-.042 24.833-31.635c2.084-2.655 5.927-3.118 8.582-1.034.385.302.732.65 1.034 1.034z" transform="translate(22 10)"/>
            <path d="M40.26 5.379L62.4 33.338c1.43 1.804 1.15 4.421-.626 5.885C55.317 44.54 46.725 47.2 36 47.2c-10.725 0-19.317-2.66-25.774-7.977-1.777-1.464-2.055-4.08-.626-5.885l22.14-27.96c1.863-2.352 5.28-2.749 7.633-.886.329.26.626.558.886.887z" transform="translate(22 10)"/>
        </g>
        <g>
            <path fill="#3A225D" d="M44.05 133h1.073c1.868 0 3.487-1.292 3.9-3.113L54 108H36l4.12 21.745c.358 1.888 2.008 3.255 3.93 3.255z" transform="translate(39 -3)"/>
            <path fill="#3A225D" d="M51.696 52.593l34.399 44.14c2.241 2.877 1.726 7.026-1.15 9.267-.064.05-.13.1-.195.147C74.72 113.382 61.47 117 45 117s-29.721-3.618-39.75-10.853c-2.957-2.134-3.625-6.26-1.491-9.218.047-.066.096-.131.146-.195l34.399-44.141c2.882-3.698 8.216-4.36 11.914-1.478.552.43 1.048.926 1.478 1.478z" transform="translate(39 -3)"/>
            <path fill="#4A2E73" d="M50.51 30.656L81.55 70.2c2.027 2.581 1.577 6.317-1.004 8.343l-.052.04C71.442 85.529 59.444 89 44.5 89c-14.944 0-26.942-3.472-35.994-10.416-2.604-1.998-3.095-5.728-1.097-8.332l.04-.052L38.49 30.656c2.606-3.319 7.408-3.898 10.728-1.292.48.377.914.811 1.292 1.292z" transform="translate(39 -3)"/>
            <path fill="#63458F" d="M50.324 6.723L78 41.672c1.786 2.256 1.438 5.527-.783 7.357C69.146 55.676 58.407 59 45 59s-24.146-3.324-32.217-9.971c-2.221-1.83-2.57-5.101-.783-7.357L39.676 6.723c2.328-2.94 6.6-3.436 9.54-1.108.411.326.783.698 1.108 1.108z" transform="translate(39 -3)"/>
        </g>
    </g>
</svg>
