<svg xmlns="http://www.w3.org/2000/svg" width="150" height="130" viewBox="0 0 150 130">
    <g fill="none" fill-rule="evenodd">
        <g transform="translate(19 34.5)">
            <rect width="103.745" height="69.717" x=".628" y=".779" fill="#3A225D" rx="4"/>
            <rect width="97.106" height="63.077" x="3.947" y="4.099" fill="#4A2E73" rx="3"/>
            <circle cx="21.923" cy="17.569" r="2.49" fill="#291547"/>
            <circle cx="42.452" cy="17.94" r="2.49" fill="#291547"/>
            <circle cx="62.794" cy="17.503" r="2.49" fill="#291547"/>
            <circle cx="83.323" cy="17.874" r="2.49" fill="#291547"/>
            <circle cx="21.8" cy="35.485" r="2.49" fill="#291547"/>
            <circle cx="42.329" cy="35.856" r="2.49" fill="#291547"/>
            <circle cx="62.671" cy="35.419" r="2.49" fill="#291547"/>
            <circle cx="83.2" cy="35.79" r="2.49" fill="#291547"/>
            <circle cx="21.678" cy="53.401" r="2.49" fill="#291547"/>
            <circle cx="42.207" cy="53.772" r="2.49" fill="#291547"/>
            <circle cx="62.549" cy="53.335" r="2.49" fill="#291547"/>
            <circle cx="83.077" cy="53.706" r="2.49" fill="#291547"/>
        </g>
        <g transform="rotate(-90 89.25 26.75)">
            <rect width="101.256" height="68.057" fill="#4A2E73" rx="4"/>
            <rect width="94.616" height="61.417" x="3.32" y="3.32" fill="#63458F" rx="3"/>
            <circle cx="20.749" cy="16.599" r="2.49" fill="#3A225D"/>
            <circle cx="40.668" cy="16.599" r="2.49" fill="#3A225D"/>
            <circle cx="60.587" cy="16.599" r="2.49" fill="#3A225D"/>
            <circle cx="80.506" cy="16.599" r="2.49" fill="#3A225D"/>
            <circle cx="20.749" cy="34.028" r="2.49" fill="#3A225D"/>
            <circle cx="40.668" cy="34.028" r="2.49" fill="#3A225D"/>
            <circle cx="60.587" cy="34.028" r="2.49" fill="#3A225D"/>
            <circle cx="80.506" cy="34.028" r="2.49" fill="#3A225D"/>
            <circle cx="20.749" cy="51.458" r="2.49" fill="#3A225D"/>
            <circle cx="40.668" cy="51.458" r="2.49" fill="#3A225D"/>
            <circle cx="60.587" cy="51.458" r="2.49" fill="#3A225D"/>
            <circle cx="80.506" cy="51.458" r="2.49" fill="#3A225D"/>
        </g>
    </g>
</svg>
