<svg xmlns="http://www.w3.org/2000/svg" width="150" height="130" viewBox="0 0 150 130">
    <g fill="none" fill-rule="evenodd">
        <path fill="#3A225D" d="M4 118.694h56.438c2.21 0 4-1.79 4-4V4c0-2.21-1.79-4-4-4H4C1.791 0 0 1.79 0 4v110.694c0 2.21 1.791 4 4 4z" transform="translate(29)"/>
        <path fill="#63458F" d="M36.219 129.872h51.743c2.209 0 4-1.79 4-4V68.777c0-2.21-1.791-4-4-4H36.219c-2.21 0-4 1.79-4 4v57.095c0 2.21 1.79 4 4 4zM0 42.059L64.438 42.059 64.438 40.026 0 40.026z" transform="translate(29)"/>
        <path fill="#291547" d="M32.219 78.914L91.962 78.914 91.962 76.879 32.219 76.879z" transform="translate(29)"/>
        <path fill="#63458F" d="M6.111 35.116L8.741 35.116 8.741 20.212 6.111 20.212zM6.111 61.873L8.741 61.873 8.741 46.969 6.111 46.969z" transform="translate(29)"/>
        <g>
            <path fill="#291547" d="M5.062 2.607c0 1.37-1.111 2.48-2.481 2.48C1.21 5.088.1 3.978.1 2.608.1 1.237 1.21.126 2.58.126c1.37 0 2.482 1.11 2.482 2.48M45.486 2.607c0 1.37-1.11 2.48-2.48 2.48-1.371 0-2.481-1.11-2.481-2.48 0-1.37 1.11-2.481 2.48-2.481 1.37 0 2.48 1.11 2.48 2.48M14.125 3.854h-1.642c-.236 0-.426-.19-.426-.426V1.786c0-.235.19-.426.426-.426h1.642c.235 0 .426.19.426.426v1.642c0 .235-.19.426-.426.426M23.614 3.854h-1.642c-.235 0-.426-.19-.426-.426V1.786c0-.235.19-.426.426-.426h1.642c.235 0 .426.19.426.426v1.642c0 .235-.19.426-.426.426M33.103 3.854h-1.642c-.235 0-.426-.19-.426-.426V1.786c0-.235.19-.426.426-.426h1.642c.236 0 .426.19.426.426v1.642c0 .235-.19.426-.426.426" transform="translate(29) translate(39.311 68.375)"/>
            <path stroke="#291547" stroke-width="2.725" d="M39.768 34.564c0 9.375-7.6 16.975-16.975 16.975-9.375 0-16.976-7.6-16.976-16.975 0-9.375 7.6-16.976 16.976-16.976s16.975 7.6 16.975 16.976z" transform="translate(29) translate(39.311 68.375)"/>
            <path fill="#291547" d="M38.43 27.948c-.283-.012-.567-.022-.853-.022-5.267 0-10.04 2.09-13.554 5.477-.142.143-1.252 1.161-1.252 1.161-3.413 2.905-7.832 4.662-12.664 4.662-1.28 0-2.529-.127-3.739-.36 1.905 7.291 8.536 12.673 16.425 12.673 9.375 0 16.976-7.6 16.976-16.975 0-2.347-.477-4.583-1.338-6.616" transform="translate(29) translate(39.311 68.375)"/>
        </g>
    </g>
</svg>
