<svg xmlns="http://www.w3.org/2000/svg" width="150" height="130" viewBox="0 0 150 130">
    <g fill="none" fill-rule="evenodd">
        <path fill="#3A225D" d="M9.694 3.074l-8.6 9.095C.39 12.912 0 13.895 0 14.917V80.71c0 2.21 1.79 4 4 4h17.2c2.21 0 4-1.79 4-4V14.917c0-1.022-.39-2.005-1.093-2.748l-8.6-9.095c-1.518-1.606-4.05-1.676-5.655-.158-.054.05-.107.103-.158.158zM57.085 3.074l-8.6 9.095c-.703.743-1.094 1.726-1.094 2.748V80.71c0 2.21 1.791 4 4 4h17.2c2.21 0 4-1.79 4-4V14.917c0-1.022-.39-2.005-1.093-2.748l-8.6-9.095c-1.518-1.605-4.05-1.676-5.655-.158-.054.05-.107.104-.158.158zM104.476 3.074l-8.6 9.095c-.703.743-1.094 1.726-1.094 2.748V80.71c0 2.21 1.79 4 4 4h17.2c2.21 0 4-1.79 4-4V14.917c0-1.022-.391-2.005-1.093-2.748l-8.6-9.095c-1.518-1.605-4.05-1.676-5.655-.158-.054.05-.107.104-.158.158z" transform="translate(15 23)"/>
        <path fill="#291547" d="M28.738 58.461L43.853 58.461 43.853 36.677 28.738 36.677zM76.129 58.461L91.244 58.461 91.244 36.677 76.129 36.677z" transform="translate(15 23)"/>
    </g>
</svg>
