<svg xmlns="http://www.w3.org/2000/svg" width="24" height="24" viewBox="0 0 24 24">
    <g fill="none" fill-rule="evenodd">
        <g fill="#FFF">
            <g>
                <path d="M6.206 8.207c.456-.455 1.176-.486 1.666-.09l.102.09 9.819 9.82c.488.488.488 1.28 0 1.767-.456.456-1.176.486-1.666.091l-.102-.09-9.819-9.82c-.488-.488-.488-1.28 0-1.768z" transform="translate(-577 -20) translate(577 18) scale(-1 1) rotate(-45 0 42.97)"/>
                <path d="M6.206 3.207c.456-.455 1.176-.486 1.666-.09l.102.09 9.819 9.82c.488.488.488 1.28 0 1.767-.456.456-1.176.486-1.666.091l-.102-.09-9.819-9.82c-.488-.488-.488-1.28 0-1.768z" transform="translate(-577 -20) translate(577 18) scale(-1 1) rotate(-45 0 37.97)"/>
                <path d="M6.206 13.207c.456-.455 1.176-.486 1.666-.09l.102.09 9.819 9.82c.488.488.488 1.28 0 1.767-.456.456-1.176.486-1.666.091l-.102-.09-9.819-9.82c-.488-.488-.488-1.28 0-1.768z" transform="translate(-577 -20) translate(577 18) scale(-1 1) rotate(-45 0 47.97)"/>
            </g>
        </g>
    </g>
</svg>
