<?xml version="1.0" encoding="UTF-8"?>
<svg width="24px" height="24px" viewBox="0 0 24 24" version="1.1" xmlns="http://www.w3.org/2000/svg" xmlns:xlink="http://www.w3.org/1999/xlink">
    <title>Icons/Settings</title>
    <defs>
        <path d="M9.63552997,0.0515584897 L10.5580857,0.298756565 C11.2868273,0.494022287 11.8144513,1.23941759 11.7569276,1.9903728 L11.678431,3.01512237 C12.1764914,3.38317395 12.617377,3.82405961 12.9854286,4.32211996 L14.0101782,4.24362339 C14.7639837,4.18588134 15.5055536,4.71008437 15.7017944,5.44246524 L15.9489925,6.36502101 C16.1442582,7.09376261 15.7625389,7.92339602 15.0834308,8.24905662 L14.1568711,8.6933805 C14.0877825,9.31367894 13.9261779,9.91461079 13.6790493,10.479896 L14.2586838,11.3270542 C14.6855927,11.9509979 14.6024045,12.8553177 14.0662644,13.3914577 L13.3909067,14.0668154 C12.8574309,14.6002913 11.9480876,14.6845294 11.3265032,14.2592348 L10.479345,13.6796002 C9.91405981,13.9267289 9.31312796,14.0883335 8.69282952,14.1574221 L8.24850564,15.0839818 C7.92160897,15.7656675 7.0968509,16.1457843 6.36447003,15.9495435 L5.44191426,15.7023454 C4.71317266,15.5070797 4.18554869,14.7616844 4.24307241,14.0107292 L4.32156898,12.9859796 C3.82350863,12.617928 3.38262297,12.1770424 3.01457139,11.678982 L1.98982182,11.7574786 C1.2360163,11.8152206 0.494446445,11.2910176 0.298205583,10.5586367 L0.0510075081,9.63608095 C-0.144258214,8.90733935 0.237461067,8.07770594 0.916569224,7.75204534 L1.84312886,7.30772146 C1.91221747,6.68742302 2.07382213,6.08649117 2.32095075,5.52120601 L1.74131618,4.67404779 C1.31440733,4.05010409 1.39759555,3.14578424 1.93373555,2.60964423 L2.60909325,1.93428653 C3.14256913,1.40081066 4.05191238,1.31657255 4.67349681,1.74186716 L5.52065502,2.32150173 C6.08594019,2.07437311 6.68687204,1.91276845 7.30717048,1.84367984 L7.75149436,0.917120205 C8.07839103,0.235434444 8.9031491,-0.144682372 9.63552997,0.0515584897 Z M8.82801544,4.90980432 C7.12134749,4.45250403 5.36710462,5.46531662 4.90980432,7.17198456 C4.45250403,8.87865251 5.46531662,10.6328954 7.17198456,11.0901957 C8.87865251,11.547496 10.6328954,10.5346834 11.0901957,8.82801544 C11.547496,7.12134749 10.5346834,5.36710462 8.82801544,4.90980432 Z" id="path-1"></path>
    </defs>
    <g id="Icons/Settings" stroke="none" stroke-width="1" fill="none" fill-rule="evenodd">
        <g id="Oval-7-Copy-+-Color/Rood-Mask" transform="translate(4.000000, 4.000000)">
            <mask id="mask-2" fill="white">
                <use xlink:href="#path-1"></use>
            </mask>
            <use id="Mask" fill="#979797" fill-rule="nonzero" xlink:href="#path-1"></use>
            <g id="Group" mask="url(#mask-2)">
                <g transform="translate(-2.666667, -2.666667)" id="Color/Rood">
                    <rect id="Rectangle-Copy" fill="#000000" x="0" y="0" width="21.3333333" height="21.3333333"></rect>
                </g>
            </g>
        </g>
    </g>
</svg>