<svg xmlns="http://www.w3.org/2000/svg" width="24" height="24" viewBox="0 0 24 24">
    <g fill="none" fill-rule="evenodd">
        <g fill="#151522">
            <g>
                <g>
                    <path d="M9.583 4.009c.69 0 1.25.56 1.25 1.25 0 .647-.492 1.18-1.123 1.243l-.127.007H6.499v10.988h3.084c.647 0 1.18.491 1.243 1.122l.007.128c0 .647-.492 1.18-1.123 1.243l-.127.007H5.25c-.647 0-1.18-.492-1.244-1.123L4 18.747V5.259c0-.647.492-1.18 1.122-1.244l.128-.006h4.333zm6.337 3.455l.069.057 3.674 3.675c.414.413.443 1.065.09 1.513l-.09.1-3.674 3.674c-.195.195-.512.195-.707 0-.174-.174-.193-.443-.058-.638l.058-.07 3.236-3.236H10.07c-.276 0-.5-.223-.5-.5 0-.245.177-.45.41-.491l.09-.009h8.522l-3.31-3.31c-.195-.196-.195-.512 0-.708.173-.173.443-.192.638-.057z" transform="translate(-441 -130) translate(425) translate(16 130)"/>
                </g>
            </g>
        </g>
    </g>
</svg>
