<?xml version="1.0" encoding="UTF-8"?>
<svg width="246px" height="109px" viewBox="0 0 246 109" version="1.1" xmlns="http://www.w3.org/2000/svg" xmlns:xlink="http://www.w3.org/1999/xlink">
    <title>Group 4 Copy 4</title>
    <defs>
        <path d="M39.4340659,78.8594505 C60.9731712,78.8594505 78.4340659,61.3985558 78.4340659,39.8594505 C78.4340659,18.3203453 60.9731712,0.859450549 39.4340659,0.859450549 C17.8949607,0.859450549 0.434065934,18.3203453 0.434065934,39.8594505 C0.434065934,61.3985558 17.8949607,78.8594505 39.4340659,78.8594505 Z M39.4340659,54.8594505 C47.7183372,54.8594505 54.4340659,48.1437218 54.4340659,39.8594505 C54.4340659,31.5751793 47.7183372,24.8594505 39.4340659,24.8594505 C31.1497947,24.8594505 24.4340659,31.5751793 24.4340659,39.8594505 C24.4340659,48.1437218 31.1497947,54.8594505 39.4340659,54.8594505 Z" id="path-1"></path>
    </defs>
    <g id="Logo" stroke="none" stroke-width="1" fill="none" fill-rule="evenodd">
        <g id="font-+-logo" transform="translate(-389.000000, -396.000000)">
            <g id="Group-4-Copy-4" transform="translate(389.000000, 396.000000)">
                <g id="Group-Copy-6" transform="translate(0.000000, 29.148934)">
                    <mask id="mask-2" fill="white">
                        <use xlink:href="#path-1"></use>
                    </mask>
                    <use id="Mask" fill="#FFFFFF" xlink:href="#path-1"></use>
                </g>
                <path d="M185,2.84217094e-14 C191.627417,2.84217094e-14 197,5.372583 197,12 L197,47.9055761 C197,49.5624304 198.343146,50.9055761 200,50.9055761 C200.795627,50.9055761 201.55867,50.589523 202.121275,50.0269414 L219.071068,33.0778665 L219.071068,33.0778665 C220.946432,31.2025027 223.489971,30.1489343 226.142136,30.1489343 L238.97,30.1489343 C242.852052,30.1489343 245.999077,33.2959592 245.999077,37.178011 C245.999077,39.0422693 245.258491,40.8301698 243.940244,42.1483826 L220.474579,65.6134457 C218.521842,67.5659515 218.521802,70.7317764 220.474398,72.6844229 C220.474428,72.6844531 220.474458,72.6844833 220.474579,72.6844229 L243.940244,96.1494861 L243.940244,96.1494861 C245.258491,97.4676988 245.999077,99.2555993 245.999077,101.119858 C245.999077,104.922684 242.979191,108.020178 239.206738,108.145023 L238.97,108.148934 L226.142136,108.148934 C223.600478,108.148934 221.158582,107.181334 219.308928,105.450126 L219.071068,105.220002 L202.121365,88.269582 C200.949817,87.0979844 199.050322,87.0979442 197.878725,88.2694922 C197.316088,88.832105 197,89.595186 197,90.3908575 L197,96 L197,96 C197,102.627417 191.627417,108 185,108 C178.372583,108 173,102.627417 173,96 L173,12 C173,5.372583 178.372583,2.84217094e-14 185,2.84217094e-14 Z" id="Path" fill="#FFFFFF"></path>
                <path d="M151,2.84217094e-14 C157.627417,2.72042727e-14 163,5.372583 163,12 L163,96 C163,102.627417 157.627417,108 151,108 C147.356112,108 144.091563,106.375856 141.890772,103.811986 C136.533054,106.583473 130.449344,108.148934 124,108.148934 C102.460895,108.148934 85,90.6880396 85,69.1489343 C85,47.6098291 102.460895,30.1489343 124,30.1489343 C129.31579,30.1489343 134.383181,31.2124571 139.001002,33.1383324 L139,12 C139,5.372583 144.372583,2.96391462e-14 151,2.84217094e-14 Z M124,54.1489343 C115.715729,54.1489343 109,60.8646631 109,69.1489343 C109,77.4332056 115.715729,84.1489343 124,84.1489343 C132.284271,84.1489343 139,77.4332056 139,69.1489343 C139,60.8646631 132.284271,54.1489343 124,54.1489343 Z" id="Combined-Shape" fill="#FFFFFF"></path>
            </g>
        </g>
    </g>
</svg>