<svg xmlns="http://www.w3.org/2000/svg" xmlns:xlink="http://www.w3.org/1999/xlink" viewBox="0 0 310 288"><defs><filter id="a" width="110%" height="105.5%" x="-5%" y="-2.2%" filterUnits="objectBoundingBox"><feOffset dy="1" in="SourceAlpha" result="shadowOffsetOuter1"/><feGaussianBlur in="shadowOffsetOuter1" result="shadowBlurOuter1" stdDeviation="1.5"/><feColorMatrix in="shadowBlurOuter1" values="0 0 0 0 0.22745098 0 0 0 0 0.133333333 0 0 0 0 0.364705882 0 0 0 0.5 0"/></filter><filter id="c" width="280%" height="280%" x="-90%" y="-72%" filterUnits="objectBoundingBox"><feOffset dy="1" in="SourceAlpha" result="shadowOffsetOuter1"/><feGaussianBlur in="shadowOffsetOuter1" result="shadowBlurOuter1" stdDeviation="1.5"/><feColorMatrix in="shadowBlurOuter1" values="0 0 0 0 0.22745098 0 0 0 0 0.133333333 0 0 0 0 0.364705882 0 0 0 0.5 0"/></filter><rect id="d" width="5.556" height="5.556" x="47.222" y="44.444" rx="2.778"/><path id="b" d="M0 0h100v182.222H0z"/></defs><g fill="none" fill-rule="evenodd" transform="translate(.269 .135)"><path fill="#F5D265" d="M203.905 3.933c-20.753 10.095-36.223 30.178-36.223 55.567 0 .185.009.367.01.551-.795 27.084-23.071 48.803-50.395 48.803-6.052 0-11.881-1.014-17.257-2.967-21.45-8.182-44.498-7.66-63.88 3.51-38.122 21.97-47.617 76.799-21.206 122.462 17.57 30.38 46.278 47.625 74.398 53.137 6.71 1.282 15.23 2.004 22.915 2.004 39.249 0 71.066-31.76 71.066-70.94 0-2.267-.77-11.146-.77-13.419 0-28.73 23.332-52.022 52.114-52.022 5.954 0 11.668 1.01 16.997 2.846 12.696 3.864 25.128 3.265 35.466-2.693 26.602-15.332 29.3-60.38 6.029-100.617-22.904-39.602-61.737-59.072-89.264-46.222z"/><ellipse cx="174.231" cy="235.865" fill="#3A225D" rx="73.5" ry="19"/><g transform="translate(123.731 53.865)"><use fill="#000" filter="url(#a)" xlink:href="#b"/><use fill="#F6D365" xlink:href="#b"/><path fill="#C83760" d="M8.889 8.889h82.222v173.333H8.889z"/><rect width="16.667" height="6.667" x="15.556" y="96.667" fill="#3A225D" rx="3.333"/><path fill="#F6D365" stroke="#3A225D" stroke-width="3.333" d="M30.61 77.852L48.131 44.65a2.221 2.221 0 013.885-.083L71.384 77.77a2.224 2.224 0 01-1.92 3.342h-36.89a2.222 2.222 0 01-1.965-3.259z"/><use fill="#000" filter="url(#c)" xlink:href="#d"/><use fill="#C83760" xlink:href="#d"/><rect width="3.333" height="10" x="48.333" y="60" fill="#3A225D" rx="1.667"/><rect width="3.333" height="3.333" x="48.333" y="72.222" fill="#3A225D" rx="1.667"/><rect width="55.556" height="3.333" x="22.222" y="163.333" fill="#3A225D" rx="1.667"/><rect width="55.556" height="3.333" x="22.222" y="157.778" fill="#3A225D" rx="1.667"/><rect width="55.556" height="3.333" x="22.222" y="152.222" fill="#3A225D" rx="1.667"/></g></g></svg>